<svg width="132" height="29" viewBox="0 0 132 29" fill="none" xmlns="http://www.w3.org/2000/svg">
<path d="M0.800049 26.88V3.44C0.800049 2.93333 0.893382 2.46667 1.08005 2.04C1.29338 1.61333 1.56005 1.25333 1.88005 0.96C2.22672 0.666667 2.60005 0.440001 3.00005 0.280001C3.42672 0.0933337 3.85338 0 4.28005 0H7.40005C7.69338 0 7.92005 0.0933337 8.08005 0.280001C8.26672 0.466667 8.36005 0.706667 8.36005 1V20.4C8.36005 20.6133 8.46672 20.88 8.68005 21.2C8.89338 21.4933 9.20005 21.64 9.60005 21.64H20.32C20.6134 21.64 20.8534 21.7333 21.0401 21.92C21.2534 22.08 21.3601 22.32 21.3601 22.64V26.88C21.3601 27.2 21.2534 27.4533 21.0401 27.64C20.8534 27.8 20.6134 27.88 20.32 27.88H1.80005C1.56005 27.88 1.33338 27.7733 1.12005 27.56C0.906716 27.3467 0.800049 27.12 0.800049 26.88Z" fill="#1869ED"/>
<path d="M24.7444 26.92V3.52C24.7444 2.50667 25.0911 1.68 25.7844 1.04C26.4778 0.373333 27.2911 0.0399995 28.2244 0.0399995H44.5444C44.8378 0.0399995 45.0778 0.146666 45.2644 0.36C45.4778 0.546668 45.5844 0.786668 45.5844 1.08V5.04C45.5844 5.33333 45.4911 5.56 45.3044 5.72C45.1178 5.90667 44.8644 6 44.5444 6H29.7844C30.4244 6 30.9444 6.22667 31.3444 6.68C31.7711 7.13333 31.9844 7.62667 31.9844 8.16V9.84C31.9844 10.1333 32.0778 10.4133 32.2644 10.68C32.4778 10.9467 32.7844 11.08 33.1844 11.08H41.9044C42.1978 11.08 42.4378 11.1867 42.6244 11.4C42.8378 11.5867 42.9444 11.8267 42.9444 12.12V15.72C42.9444 16.0133 42.8378 16.2667 42.6244 16.48C42.4378 16.6667 42.1978 16.76 41.9044 16.76H29.7844C30.3978 16.76 30.9178 16.9733 31.3444 17.4C31.7711 17.8267 31.9844 18.3067 31.9844 18.84V20.72C31.9844 21.0133 32.0911 21.2933 32.3044 21.56C32.5178 21.8267 32.8111 21.96 33.1844 21.96H44.8644C45.5578 21.96 45.9044 22.3067 45.9044 23V26.92C45.9044 27.24 45.7978 27.4933 45.5844 27.68C45.3978 27.84 45.1578 27.92 44.8644 27.92H25.7444C25.4778 27.92 25.2378 27.8267 25.0244 27.64C24.8378 27.4267 24.7444 27.1867 24.7444 26.92Z" fill="#1869ED"/>
<path d="M50.2085 17.4V3.56C50.2085 3 50.3152 2.50667 50.5285 2.08C50.7685 1.65333 51.0485 1.29333 51.3685 1C51.7152 0.706667 52.0885 0.493333 52.4885 0.36C52.9152 0.200001 53.3152 0.120001 53.6885 0.120001H56.6885C56.9818 0.120001 57.2218 0.213334 57.4085 0.4C57.6218 0.586667 57.7285 0.826667 57.7285 1.12V17.32C57.7285 18.84 58.0752 20.04 58.7685 20.92C59.4885 21.8 60.6485 22.24 62.2485 22.24C63.8485 22.24 64.9952 21.8 65.6885 20.92C66.4085 20.04 66.7685 18.84 66.7685 17.32V3.52C66.7685 2.96 66.8752 2.46667 67.0885 2.04C67.3285 1.61333 67.6218 1.25333 67.9685 0.96C68.3152 0.666667 68.6885 0.453334 69.0885 0.320001C69.4885 0.186667 69.8752 0.120001 70.2485 0.120001H73.2485C73.5418 0.120001 73.7818 0.213334 73.9685 0.4C74.1818 0.586667 74.2885 0.826667 74.2885 1.12V17.4C74.2885 19.2933 73.9952 20.9333 73.4085 22.32C72.8485 23.68 72.0485 24.8133 71.0085 25.72C69.9685 26.6 68.7018 27.2667 67.2085 27.72C65.7418 28.1467 64.1018 28.36 62.2885 28.36C60.5018 28.36 58.8618 28.1467 57.3685 27.72C55.8752 27.2933 54.5952 26.64 53.5285 25.76C52.4885 24.8533 51.6752 23.7067 51.0885 22.32C50.5018 20.9333 50.2085 19.2933 50.2085 17.4Z" fill="#212635"/>
<path d="M103.635 27.76C103.448 27.92 103.248 28 103.035 28H96.7547C96.1947 28 95.7281 27.7333 95.3547 27.2L90.4747 20.12C90.4481 20.04 90.3814 20 90.2747 20C90.1681 20 90.0881 20.04 90.0347 20.12L85.2747 27.2C84.9014 27.7333 84.4347 28 83.8747 28H77.7947C77.6081 28 77.4081 27.92 77.1947 27.76C77.0347 27.5467 76.9547 27.3467 76.9547 27.16C76.9547 26.9733 76.9947 26.8267 77.0747 26.72L85.6347 13.92C85.7147 13.84 85.7281 13.7467 85.6747 13.64L77.7547 1.44C77.6747 1.28 77.6347 1.12 77.6347 0.96C77.6347 0.746667 77.7147 0.560001 77.8747 0.4C78.0614 0.213334 78.2614 0.120001 78.4747 0.120001H84.5547C85.1681 0.120001 85.6481 0.413334 85.9947 1L90.2747 7.56C90.3014 7.66667 90.3814 7.72 90.5147 7.72C90.6214 7.72 90.6881 7.68 90.7147 7.6L95.1547 1C95.5014 0.413334 95.9681 0.120001 96.5547 0.120001H102.355C102.568 0.120001 102.755 0.213334 102.915 0.4C103.101 0.560001 103.195 0.746667 103.195 0.96C103.195 1.12 103.155 1.28 103.075 1.44L95.1147 13.56C95.0347 13.64 95.0347 13.7333 95.1147 13.84L103.755 26.68C103.835 26.84 103.875 27 103.875 27.16C103.875 27.3467 103.795 27.5467 103.635 27.76Z" fill="#212635"/>
<path d="M107.126 27V3.6C107.126 2.58667 107.473 1.76 108.166 1.12C108.886 0.453334 109.7 0.120001 110.606 0.120001H118.606C120.393 0.120001 122.033 0.333334 123.526 0.76C125.046 1.16 126.366 1.81333 127.486 2.72C128.606 3.6 129.486 4.73333 130.126 6.12C130.766 7.48 131.113 9.10667 131.166 11C131.193 11.3733 131.206 11.8267 131.206 12.36C131.206 12.8667 131.206 13.44 131.206 14.08C131.206 14.6933 131.206 15.2533 131.206 15.76C131.206 16.2667 131.193 16.7067 131.166 17.08C130.926 24.36 126.806 28 118.806 28H108.126C107.833 28 107.593 27.9067 107.406 27.72C107.22 27.5333 107.126 27.2933 107.126 27ZM118.606 22.04C120.34 22.04 121.593 21.6267 122.366 20.8C123.14 19.9467 123.54 18.68 123.566 17C123.593 16.6267 123.606 16.2 123.606 15.72C123.633 15.2133 123.646 14.6533 123.646 14.04C123.646 13.4267 123.633 12.88 123.606 12.4C123.606 11.8933 123.593 11.4533 123.566 11.08C123.486 7.74667 121.766 6.08 118.406 6.08H112.406C113.02 6.08 113.54 6.30667 113.966 6.76C114.393 7.18667 114.606 7.65333 114.606 8.16V20.8C114.606 21.1467 114.713 21.44 114.926 21.68C115.166 21.92 115.473 22.04 115.846 22.04H118.606Z" fill="#212635"/>
</svg>
